<svg width="87" height="87" xmlns="http://www.w3.org/2000/svg">
 <defs>
  <linearGradient id="svg_2" x1="0.32813" y1="0.74063" x2="0.45313" y2="0.24453">
   <stop stop-color="#21d0e0" stop-opacity="0.99609" offset="0"/>
   <stop stop-color="#a718e0" stop-opacity="0.99609" offset="1"/>
  </linearGradient>
  <linearGradient id="svg_10" x1="0.3125" y1="0.02812" x2="0.37891" y2="0.93437">
   <stop stop-color="#21d0e0" stop-opacity="0.99609" offset="0"/>
   <stop stop-color="#a718e0" stop-opacity="0.99609" offset="1"/>
  </linearGradient>
  <linearGradient id="svg_88" x1="0.3125" y1="0.02812" x2="0.37891" y2="0.93437">
   <stop stop-color="#46d1dd" stop-opacity="0.98828" offset="0"/>
   <stop stop-color="#ad38e0" stop-opacity="0.98828" offset="1"/>
  </linearGradient>
 </defs>
 <g>
  <path fill="url(#svg_10)" stroke="#000" d="m37.82371,117.13618" id="svg_12"/>
  <path fill="url(#svg_10)" stroke="#000" d="m45.07557,118.28121" id="svg_23"/>
  <path fill="url(#svg_10)" stroke="#ff0000" d="m-291.20173,-339.64667c0,0 0,10.96605 0,10.96605c0,0 7.18015,0 7.8329,-0.2611c0.65274,-0.2611 -0.65274,-4.17754 -0.66577,-4.29502c0.01303,0.11747 -1.03135,-2.2324 -1.55355,-3.01569c-0.52219,-0.78329 -1.04439,-1.17493 -2.61097,-2.34987c-1.56658,-1.17493 -3.00261,-1.04439 -3.00261,-1.04439l0,0.00002z" id="svg_34"/>
  <path fill="url(#svg_10)" stroke="#ff0000" d="m-290.5516,-345.16885c0.13055,1.04439 0.13055,10.57441 0.13055,10.57441c0,0 8.61619,0.13055 8.60315,0.01308c0.01303,0.11747 -0.24806,-0.14362 -8.7337,-10.58748l0,-0.00001z" id="svg_41"/>
  <path id="svg_3" stroke-width="2" d="m-88.93167,54.52815c6.76331,-0.95862 -6.5701,0.33123 -9.48812,3.72651c-1.3332,1.57324 10.87885,12.66716 10.62808,12.58694c-5.3912,0.08268 -10.02891,0.08268 -10.82133,-0.49686c-2.8791,-5.21708 1.56537,-9.68874 1.73914,-9.77143" fill="none" stroke="#000"/>
  <path id="svg_14" stroke-width="2" d="m-88.94519,53.32557c7.0209,-1.01358 -6.82032,0.35022 -9.84947,3.94016c-1.38397,1.66344 11.29318,13.39338 11.03286,13.30857c-5.59652,0.08742 -10.41086,0.08742 -11.23346,-0.52535c-2.98875,-5.51618 1.62499,-10.24421 1.80538,-10.33164" fill="none" stroke="#000"/>
  <rect fill="url(#svg_2)" stroke="#000" x="65.68613" y="63.31973" width="9.54192" height="0" id="svg_8"/>
  <path fill="url(#svg_10)" stroke="#ff0000" d="m51.37007,61.08537" id="svg_32"/>
  <path fill="url(#svg_10)" stroke="#ff0000" d="m51.57959,61.47515" id="svg_44"/>
  <path fill="url(#svg_10)" stroke="#ff0000" d="m51.18795,61.3446" id="svg_45"/>
  <path fill="url(#svg_10)" stroke="#ff0000" d="m50.53521,61.21406" id="svg_46"/>
  <path fill="url(#svg_10)" stroke="#ff0000" d="m51.0574,60.69186" id="svg_47"/>
  <path fill="url(#svg_10)" stroke="#ff0000" d="m50.66576,60.43077" id="svg_48"/>
  <path fill="url(#svg_10)" stroke="#ff0000" d="m50.92685,61.21406" id="svg_49"/>
  <path fill="url(#svg_10)" stroke="#ff0000" d="m51.18795,61.21406" id="svg_51"/>
  <path fill="url(#svg_10)" stroke="#ff0000" d="m51.18795,61.6057" id="svg_52"/>
  <path fill="url(#svg_10)" stroke="#ff0000" d="m50.66576,61.99735" id="svg_53"/>
  <path fill="url(#svg_10)" stroke="#ff0000" d="m50.92685,60.69186" id="svg_54"/>
  <path fill="none" stroke="#000000" stroke-width="2" d="m69.00741,87.5937" id="svg_73"/>
  <path stroke="#000000" stroke-width="2" fill="none" d="m69.27475,87.38956" id="svg_78"/>
  <g id="svg_1">
   <rect x="1" fill="url(#svg_88)" stroke="#000000" y="1" width="85" height="85" id="svg_7" rx="26"/>
   <path fill="none" d="m8.75187,78.50676c1.05951,-0.94491 4.16044,-18.86265 4.94506,-23.79421c0.78461,-4.93156 0.49958,-7.07082 0.42832,-9.57081c-0.07126,-2.49999 -0.57087,-7.53298 -0.49881,-12.68154c0.07206,-5.14856 2.00888,-11.50441 6.25443,-15.74995c4.24554,-4.24554 8.06759,-5.71173 11.32203,-6.71172c3.25443,-1 13.06758,-1.35587 19.96168,-0.85587c6.89411,0.5 11.21616,3.68237 14.46615,6.9368c3.24999,3.25443 4.60141,5.5676 6.13522,10.70727c1.5338,5.13967 1.17793,8.28378 1.07206,13.60139c-0.10587,5.3176 -0.17794,5.31046 0,10.29267c0.17794,4.9822 0.80738,10.6014 1.74487,15.73594c0.9375,5.13455 2.69457,10.68522 3.66525,11.98714" id="svg_31" stroke="#000000" stroke-width="2"/>
   <g id="svg_4">
    <title>ptashka-beak</title>
    <path stroke="#000000" stroke-width="2" fill="none" d="m36.7018,55.4425c3.06236,1.74353 0.54765,0.69853 -1.30904,-1.20147c-1.85669,-1.9 -2.34007,-2.86677 -3.17272,-5.16912c-0.83265,-2.30235 -0.79352,-4.00118 -0.52529,-4.98471c0.26824,-0.98352 4.02353,-4.11293 6.25882,-4.20234c2.2353,-0.08941 2.41412,0.98353 5.54353,0.89411c3.12941,-0.08941 2.95058,-0.89411 5.3647,-0.89411c2.41412,0 5.99058,3.48705 6.52706,4.38117c0.53648,0.89412 0.08941,3.04001 -1.25177,6.43765c-1.34118,3.39764 -7.86822,7.6 -4.11293,4.82823" id="svg_79"/>
    <path stroke="#000000" stroke-width="2" fill="none" d="m31.87358,44.89192c10.81882,9.2094 11.17647,15.42352 11.53411,16.71999c0.35765,1.29647 -0.06707,-2.43647 3.523,-7.71605c3.59006,-5.27958 6.09843,-7.27757 7.94103,-8.94885" id="svg_80"/>
    <path fill="none" stroke="#000000" stroke-width="2" d="m52.97474,46.41192c-0.53647,-0.26824 -6.52706,-3.21882 -3.02067,-1.4649" id="svg_81"/>
    <path fill="none" stroke="#000000" stroke-width="2" d="m33.93005,46.41192c3.8447,-1.87765 5.72235,-2.68235 2.70168,-1.28608" id="svg_84"/>
   </g>
   <g id="svg_6">
    <title>ptashka-eye_right</title>
    <path id="svg_9" fill="none" d="m64.02316,22.21889c-2.27594,1.53941 -5.56807,-0.54234 -4.51159,-3.25554c1.05648,-2.7132 3.30137,-1.02482 4.3928,0.06125c1.09144,1.08606 4.68659,4.59943 2.97029,7.26806c-1.7163,2.66864 -10.62065,12.63384 -10.36945,12.5504c5.40062,0.08601 10.04644,0.08601 10.84024,-0.51685c2.88413,-5.4269 -1.56811,-10.07841 -1.74218,-10.16443" stroke-width="2" stroke="#000"/>
   </g>
   <g id="svg_15">
    <title>ptashka-eye_left</title>
    <path id="svg_11" fill="none" d="m20.36806,28.17585c-5.0556,-4.93411 11.00678,10.70561 10.73218,10.62976c-5.90353,0.07818 -10.98198,0.18521 -11.8497,-0.36279c-3.15271,-4.9331 1.83819,-9.23767 1.90442,-9.28157" stroke-width="2" stroke="#000"/>
   </g>
  </g>
 </g>
</svg>