<svg width="512" height="512" xmlns="http://www.w3.org/2000/svg">
 <defs>
  <linearGradient y2="0.24453" x2="0.45313" y1="0.74063" x1="0.32813" id="svg_2">
   <stop offset="0" stop-opacity="0.99609" stop-color="#21d0e0"/>
   <stop offset="1" stop-opacity="0.99609" stop-color="#a718e0"/>
  </linearGradient>
  <linearGradient y2="0.93437" x2="0.37891" y1="0.02812" x1="0.3125" id="svg_10">
   <stop offset="0" stop-opacity="0.99609" stop-color="#21d0e0"/>
   <stop offset="1" stop-opacity="0.99609" stop-color="#a718e0"/>
  </linearGradient>
  <linearGradient y2="0.93437" x2="0.37891" y1="0.02812" x1="0.3125" id="svg_88">
   <stop offset="0" stop-opacity="0.98828" stop-color="#46d1dd"/>
   <stop offset="1" stop-opacity="0.98828" stop-color="#ad38e0"/>
  </linearGradient>
  <linearGradient spreadMethod="pad" y2="0" x2="1" y1="0.64297" x1="0.10156" id="svg_93">
   <stop offset="0" stop-opacity="0.98438" stop-color="#72d0ff"/>
   <stop offset="0.19531" stop-opacity="0.99219" stop-color="#84f4ff"/>
   <stop offset="0.63281" stop-opacity="0.98828" stop-color="#ecc4ff"/>
   <stop offset="1" stop-opacity="0.99219" stop-color="#d77aff"/>
  </linearGradient>
 </defs>
 <g>
  <rect x="0" y="0" fill="url(#svg_93)" stroke="#000" stroke-width="0" width="512" height="512" id="svg_20"/>
  <path id="svg_12" d="m37.82371,117.13618" stroke="#000" fill="url(#svg_10)"/>
  <path id="svg_23" d="m45.07557,118.28121" stroke="#000" fill="url(#svg_10)"/>
  <path id="svg_34" d="m-291.20173,-339.64667c0,0 0,10.96605 0,10.96605c0,0 7.18015,0 7.8329,-0.2611c0.65274,-0.2611 -0.65274,-4.17754 -0.66577,-4.29502c0.01303,0.11747 -1.03135,-2.2324 -1.55355,-3.01569c-0.52219,-0.78329 -1.04439,-1.17493 -2.61097,-2.34987c-1.56658,-1.17493 -3.00261,-1.04439 -3.00261,-1.04439l0,0.00002z" stroke="#ff0000" fill="url(#svg_10)"/>
  <path id="svg_41" d="m-290.5516,-345.16885c0.13055,1.04439 0.13055,10.57441 0.13055,10.57441c0,0 8.61619,0.13055 8.60315,0.01308c0.01303,0.11747 -0.24806,-0.14362 -8.7337,-10.58748l0,-0.00001z" stroke="#ff0000" fill="url(#svg_10)"/>
  <path stroke="#000" fill="none" d="m-88.93167,54.52815c6.76331,-0.95862 -6.5701,0.33123 -9.48812,3.72651c-1.3332,1.57324 10.87885,12.66716 10.62808,12.58694c-5.3912,0.08268 -10.02891,0.08268 -10.82133,-0.49686c-2.8791,-5.21708 1.56537,-9.68874 1.73914,-9.77143" stroke-width="2" id="svg_3"/>
  <path stroke="#000" fill="none" d="m-88.94519,53.32557c7.0209,-1.01358 -6.82032,0.35022 -9.84947,3.94016c-1.38397,1.66344 11.29318,13.39338 11.03286,13.30857c-5.59652,0.08742 -10.41086,0.08742 -11.23346,-0.52535c-2.98875,-5.51618 1.62499,-10.24421 1.80538,-10.33164" stroke-width="2" id="svg_14"/>
  <rect id="svg_8" height="0" width="9.54192" y="63.31973" x="65.68613" stroke="#000" fill="url(#svg_2)"/>
  <path id="svg_32" d="m51.37007,61.08537" stroke="#ff0000" fill="url(#svg_10)"/>
  <path id="svg_44" d="m51.57959,61.47515" stroke="#ff0000" fill="url(#svg_10)"/>
  <path id="svg_45" d="m51.18795,61.3446" stroke="#ff0000" fill="url(#svg_10)"/>
  <path id="svg_46" d="m50.53521,61.21406" stroke="#ff0000" fill="url(#svg_10)"/>
  <path id="svg_47" d="m51.0574,60.69186" stroke="#ff0000" fill="url(#svg_10)"/>
  <path id="svg_48" d="m50.66576,60.43077" stroke="#ff0000" fill="url(#svg_10)"/>
  <path id="svg_49" d="m50.92685,61.21406" stroke="#ff0000" fill="url(#svg_10)"/>
  <path id="svg_51" d="m51.18795,61.21406" stroke="#ff0000" fill="url(#svg_10)"/>
  <path id="svg_52" d="m51.18795,61.6057" stroke="#ff0000" fill="url(#svg_10)"/>
  <path id="svg_53" d="m50.66576,61.99735" stroke="#ff0000" fill="url(#svg_10)"/>
  <path id="svg_54" d="m50.92685,60.69186" stroke="#ff0000" fill="url(#svg_10)"/>
  <path id="svg_73" d="m69.00741,87.5937" stroke-width="2" stroke="#000000" fill="none"/>
  <path id="svg_78" d="m69.27475,87.38956" fill="none" stroke-width="2" stroke="#000000"/>
  <g stroke="null" id="svg_1">
   <rect stroke="#000000" rx="26" id="svg_7" height="122.46757" width="124.31782" y="194.76621" x="193.84109" fill="url(#svg_88)"/>
   <path stroke="#000000" stroke-width="2" id="svg_31" d="m205.17868,306.43756c1.5496,-1.36142 6.0849,-27.17721 7.23246,-34.28258c1.14754,-7.10537 0.73067,-10.1876 0.62644,-13.78957c-0.10422,-3.60197 -0.83493,-10.85348 -0.72954,-18.2715c0.10539,-7.41802 2.93811,-16.5755 9.1475,-22.69245c6.20937,-6.11695 11.79936,-8.22943 16.55918,-9.67021c4.75981,-1.44079 19.11215,-1.95353 29.19521,-1.23313c10.08307,0.7204 16.40434,5.30554 21.15765,9.99451c4.75331,4.68897 6.72985,8.02177 8.97314,15.42698c2.24328,7.40521 1.7228,11.93523 1.56795,19.59681c-0.15484,7.66157 -0.26025,7.65128 0,14.82963c0.26025,7.17833 1.18084,15.27444 2.55198,22.67226c1.37115,7.39783 3.94098,15.39521 5.36066,17.27101" fill="none"/>
   <g stroke="null" id="svg_4">
    <title stroke="null">ptashka-beak</title>
    <path stroke="#000000" id="svg_79" d="m246.05721,273.20669c4.47889,2.51207 0.80097,1.00644 -1.91455,-1.73107c-2.71553,-2.73751 -3.4225,-4.13043 -4.6403,-7.44764c-1.2178,-3.31721 -1.16057,-5.76488 -0.76827,-7.18195c0.39232,-1.41705 5.88466,-5.92589 9.15392,-6.05471c3.26927,-0.12882 3.5308,1.41707 8.10776,1.28823c4.57696,-0.12882 4.31541,-1.28823 7.84621,-1.28823c3.5308,0 8.7616,5.02412 9.54623,6.31237c0.78464,1.28824 0.13077,4.38003 -1.83079,9.27533c-1.96156,4.8953 -11.50776,10.95004 -6.01542,6.95649" fill="none" stroke-width="2"/>
    <path stroke="#000000" id="svg_80" d="m238.99563,258.00547c15.8232,13.26886 16.34629,22.22213 16.86936,24.09008c0.52309,1.86795 -0.09809,-3.51045 5.15261,-11.11725c5.25069,-7.60679 8.91934,-10.48549 11.61425,-12.89346" fill="none" stroke-width="2"/>
    <path stroke="#000000" id="svg_81" d="m269.8574,260.19548c-0.78462,-0.38648 -9.54623,-4.63766 -4.41792,-2.11062" stroke-width="2" fill="none"/>
    <path stroke="#000000" id="svg_84" d="m242.00335,260.19548c5.62311,-2.70531 8.3693,-3.86472 3.95138,-1.85298" stroke-width="2" fill="none"/>
   </g>
   <g stroke="null" id="svg_6">
    <title stroke="null">ptashka-eye_right</title>
    <path stroke="#000" stroke-width="2" d="m286.01641,225.33828c-3.3287,2.21797 -8.14365,-0.7814 -6.59848,-4.69057c1.54517,-3.90916 4.82846,-1.47656 6.42475,0.08825c1.5963,1.56479 6.85443,6.62684 4.34424,10.47178c-2.5102,3.84496 -15.53337,18.20277 -15.16597,18.08255c7.89875,0.12392 14.69355,0.12392 15.85453,-0.74467c4.21822,-7.81905 -2.29346,-14.52092 -2.54805,-14.64486" fill="none" id="svg_9"/>
   </g>
   <g stroke="null" id="svg_15">
    <title stroke="null">ptashka-eye_left</title>
    <path stroke="#000" stroke-width="2" d="m222.16809,233.92104c-7.39413,-7.10904 16.09811,15.42459 15.69649,15.3153c-8.63428,0.11264 -16.06183,0.26685 -17.33093,-0.52271c-4.61104,-7.10759 2.68847,-13.30959 2.78533,-13.37284" fill="none" id="svg_11"/>
   </g>
  </g>
  <rect fill-opacity="0.25" rx="100" id="svg_16" height="50" width="50" y="47.63437" x="296.56224" stroke-width="0" stroke="#000" fill="#ffffff"/>
  <rect fill-opacity="0.25" rx="100" id="svg_17" height="120" width="120" y="338.22034" x="283.24194" stroke-width="0" stroke="#000" fill="#ffffff"/>
  <rect fill-opacity="0.2" rx="100" id="svg_18" height="80" width="80" y="152.97229" x="151.26789" stroke-width="0" stroke="#000" fill="#ffffff"/>
 </g>
</svg>