<?xml version="1.0" encoding="utf-8"?>
<!-- Generator: Adobe Illustrator 23.0.3, SVG Export Plug-In . SVG Version: 6.00 Build 0)  -->
<svg version="1.1" id="Layer_1" xmlns="http://www.w3.org/2000/svg" xmlns:xlink="http://www.w3.org/1999/xlink" x="0px" y="0px"
	 viewBox="0 0 50 50" style="enable-background:new 0 0 50 50;" xml:space="preserve">
<g>
	<g>
		<g>
			<g>
				<path d="M36.8,25.9c-1.4-2.1-3.2-3.8-5.4-4.9v-2.2c0-1.8-1.5-3.3-3.3-3.3h-2.9c0.1-0.1,0.2-0.2,0.3-0.3c0.5-0.5,1.2-1.2,1.2-2.6
					s-0.7-2.1-1.2-2.6c-0.5-0.5-0.7-0.7-0.7-1.3c0-0.5-0.4-0.9-0.9-0.9c-0.5,0-0.9,0.4-0.9,0.9c0,1.3,0.7,2.1,1.2,2.6
					c0.5,0.5,0.7,0.7,0.7,1.3s-0.2,0.8-0.7,1.3c-0.4,0.4-0.8,0.9-1.1,1.6h-1.5c-1.8,0-3.3,1.5-3.3,3.3V21c-2.2,1.1-4.1,2.8-5.4,4.9
					c-1.5,2.3-2.3,5-2.3,7.8C10.6,41.6,17,48,24.9,48s14.3-6.4,14.3-14.3C39.1,30.9,38.3,28.3,36.8,25.9z M24.9,46.1
					c-6.8,0-12.4-5.6-12.4-12.4c0-4.8,2.8-9.2,7.2-11.3c0.3-0.2,0.5-0.5,0.5-0.8v-2.8c0-0.8,0.6-1.4,1.4-1.4h6.5
					c0.8,0,1.4,0.6,1.4,1.4v1.8H27c-0.5,0-0.9,0.4-0.9,0.9s0.4,0.9,0.9,0.9h3.2c4.3,2.1,7,6.4,7,11.2C37.3,40.6,31.7,46.1,24.9,46.1
					z"/>
				<path d="M34.2,36.3c-0.5-0.2-1,0.1-1.2,0.5c-1.3,3.3-4.5,5.6-8.1,5.6c-0.5,0-0.9,0.4-0.9,0.9c0,0.5,0.4,0.9,0.9,0.9
					c2.2,0,4.3-0.7,6-1.9c1.7-1.2,3.1-2.9,3.8-4.9C34.9,37,34.6,36.5,34.2,36.3z"/>
				<path d="M34.5,32.8c-0.5,0-0.9,0.4-0.9,0.9l0,0.1c0,0.5,0.4,0.9,0.9,0.9c0,0,0,0,0,0c0.5,0,0.9-0.4,0.9-0.9l0-0.1
					C35.4,33.2,35,32.8,34.5,32.8z"/>
				<path d="M24.4,21.6c0-0.5-0.4-0.9-0.9-0.9h-0.1c-0.5,0-0.9,0.4-0.9,0.9s0.4,0.9,0.9,0.9h0.1C23.9,22.5,24.4,22.1,24.4,21.6z"/>
				<path d="M23.9,6.1c0.5,0,0.9-0.4,0.9-0.9V2.9c0-0.5-0.4-0.9-0.9-0.9S23,2.4,23,2.9v2.2C23,5.7,23.4,6.1,23.9,6.1z"/>
				<path d="M27.7,7.6c0.2,0,0.5-0.1,0.7-0.3l1.9-1.9c0.4-0.4,0.4-1,0-1.3c-0.4-0.4-1-0.4-1.3,0L27,6c-0.4,0.4-0.4,1,0,1.3
					C27.2,7.5,27.4,7.6,27.7,7.6z"/>
				<path d="M19.5,7.3c0.2,0.2,0.4,0.3,0.7,0.3c0.2,0,0.5-0.1,0.7-0.3c0.4-0.4,0.4-1,0-1.3l-1.9-1.9c-0.4-0.4-1-0.4-1.3,0
					c-0.4,0.4-0.4,1,0,1.3L19.5,7.3z"/>
			</g>
		</g>
	</g>
</g>
</svg>
