<?xml version="1.0" encoding="UTF-8" standalone="no"?> <svg viewBox="0 0 512 512" fill="none" xmlns="http://www.w3.org/2000/svg">
<path fill-rule="evenodd" clip-rule="evenodd" d="M128 24C70.5624 24 24 70.5624 24 128V384C24 441.438 70.5624 488 128 488H384C441.438 488 488 441.438 488 384V128C488 70.5624 441.438 24 384 24H128ZM40 128C40 79.3989 79.3989 40 128 40H384C432.601 40 472 79.3989 472 128V384C472 432.601 432.601 472 384 472H128C79.3989 472 40 432.601 40 384V128ZM221.402 128.352C194.769 111.484 160 130.62 160 162.145V349.855C160 381.38 194.769 400.516 221.402 383.648L380.266 283.034C400.104 270.47 400.104 241.53 380.266 228.966L221.402 128.352ZM176 162.145C176 143.23 196.862 131.749 212.841 141.869L371.705 242.483C381.624 248.765 381.624 263.235 371.705 269.517L212.841 370.131C196.862 380.251 176 368.77 176 349.855V162.145Z" fill="black"/>
</svg>
